<?xml version="1.0" encoding="utf-8"?>
<svg width="600" height="300" viewBox="0 0 600 300" fill="none" xmlns="http://www.w3.org/2000/svg" style="font-family: -apple-system, BlinkMacSystemFont, 'Segoe UI', Helvetica, Arial, sans-serif;">
  <rect width="600" height="300" rx="0" fill="white"/>
  
  <text x="30" y="60" fill="#0969DA" font-size="24">
    <tspan font-weight="400">Esri/</tspan><tspan font-weight="700">calcite-components</tspan>
  </text>
  
  <circle cx="520" cy="70" r="40" fill="#00619b"/>
  <text x="520" y="82" fill="white" font-size="40" font-weight="600" text-anchor="middle">C</text>
  
  <text x="30" y="140" fill="#57606A" font-size="14">
    <tspan x="30" dy="0">A monorepo containing the packages for</tspan>
    <tspan x="30" dy="20">Esri's Calcite Design System</tspan>
  </text>
  
  <g transform="translate(30, 220)" fill="#57606A" font-size="12">
    <g transform="translate(0,0)">
      <circle cx="8" cy="4" r="3" fill="57606A" transform="scale(0.8)"/>
      <path d="M8 8C5.33 8 0 9.33 0 12V15H16V12C16 9.33 10.67 8 8 8Z" fill="57606A" transform="scale(0.8)" />
       <text x="20" y="10">76</text>
       <text x="20" y="24" font-size="10">Contributors</text>
    </g>
    
    <g transform="translate(90,0)">
       <circle cx="6" cy="6" r="5" stroke="#57606A" stroke-width="1.5" fill="none"/>
       <circle cx="6" cy="6" r="1.5" fill="#57606A"/>
       <text x="20" y="10">772</text>
       <text x="20" y="24" font-size="10">Issues</text>
    </g>

    <g transform="translate(160,0)">
   <path clip-rule="evenodd" fill-rule="evenodd" d="M2.24 6.8a.75.75 0 0 0 1.06-.04l1.95-2.1v8.59a.75.75 0 0 0 1.5 0V4.66l1.95 2.1a.75.75 0 1 0 1.1-1.02l-3.25-3.5a.75.75 0 0 0-1.1 0L2.2 5.74a.75.75 0 0 0 .04 1.06Zm8 6.4a.75.75 0 0 0-.04 1.06l3.25 3.5a.75.75 0 0 0 1.1 0l3.25-3.5a.75.75 0 1 0-1.1-1.02l-1.95 2.1V6.75a.75.75 0 0 0-1.5 0v8.59l-1.95-2.1a.75.75 0 0 0-1.06-.04Z" stroke-width="1.5" stroke="#57606A" transform="scale(0.8)"></path>
       <text x="20" y="10">75</text>
       <text x="20" y="24" font-size="10">Pull requests</text>
    </g>

    <g transform="translate(260,0)">
       <path d="M8 0L10.5 5H16L11.5 8.5L13 14L8 11L3 14L4.5 8.5L0 5H5.5L8 0Z" fill="#57606A" transform="scale(0.8)"/>
       <text x="20" y="10">346</text>
       <text x="20" y="24" font-size="10">Stars</text>
    </g>

    <g transform="translate(330,0)">
     <path clip-rule="evenodd" fill-rule="evenodd" d="M1.469 3.75a3.5 3.5 0 0 0 5.617 4.11l.883.51c.025.092.147.116.21.043.15-.176.318-.338.5-.484.286-.23.3-.709-.018-.892l-.825-.477A3.501 3.501 0 0 0 1.47 3.75Zm2.03 3.482a2 2 0 1 1 2-3.464 2 2 0 0 1-2 3.464ZM9.956 8.322a2.75 2.75 0 0 0-1.588 1.822L7.97 11.63l-.884.51A3.501 3.501 0 0 0 1.47 16.25a3.5 3.5 0 0 0 6.367-2.81l10.68-6.166a.75.75 0 0 0-.182-1.373l-.703-.189a2.75 2.75 0 0 0-1.78.123L9.955 8.322ZM2.768 15.5a2 2 0 1 1 3.464-2 2 2 0 0 1-3.464 2Z" fill="#57606A" transform="scale(0.7)"/>
  <path d="M12.52 11.89a.5.5 0 0 0 .056.894l3.274 1.381a2.75 2.75 0 0 0 1.78.123l.704-.189a.75.75 0 0 0 .18-1.373l-3.47-2.004a.5.5 0 0 0-.5 0L12.52 11.89Z" fill="#57606A" transform="scale(0.7)"/>

       <text x="20" y="10">84</text>
       <text x="20" y="24" font-size="10">Forks</text>
    </g>
  </g>

  <g transform="translate(0, 290)">
    <rect width="400" height="10" fill="#0075E6"/>
    <rect x="400" width="80" height="10" fill="#FF4088"/>
    <rect x="480" width="120" height="10" fill="#9ACA3C"/> </g>
</svg>