<svg xmlns="http://www.w3.org/2000/svg" xmlns:xlink="http://www.w3.org/1999/xlink" xmlns:lucid="lucid" width="1222" height="462"><g transform="translate(-179.00000000000028 -119)" lucid:page-tab-id="0_0"><path d="M620 319a6 6 0 0 1 6-6h328a6 6 0 0 1 6 6v75a6 6 0 0 1-6 6H626a6 6 0 0 1-6-6z" stroke="#b8f5ed" stroke-width="2" fill="#d7faf5"/><use xlink:href="#a" transform="matrix(1,0,0,1,632,325) translate(94.32964409722221 39.66493055555556)"/><path d="M200 479a6 6 0 0 1 6-6h328a6 6 0 0 1 6 6v75a6 6 0 0 1-6 6H206a6 6 0 0 1-6-6z" stroke="#b5d6ff" stroke-width="2" fill="#cfe4ff"/><use xlink:href="#b" transform="matrix(1,0,0,1,212.00000000000028,485) translate(31.143880208333314 39.66493055555556)"/><use xlink:href="#c" transform="matrix(1,0,0,1,212.00000000000028,485) translate(93.20941840277776 39.66493055555556)"/><use xlink:href="#d" transform="matrix(1,0,0,1,212.00000000000028,485) translate(120.30881076388887 39.66493055555556)"/><use xlink:href="#e" transform="matrix(1,0,0,1,212.00000000000028,485) translate(218.15863715277777 39.66493055555556)"/><path d="M620 479a6 6 0 0 1 6-6h328a6 6 0 0 1 6 6v75a6 6 0 0 1-6 6H626a6 6 0 0 1-6-6z" stroke="#b5d6ff" stroke-width="2" fill="#cfe4ff"/><use xlink:href="#b" transform="matrix(1,0,0,1,632,485) translate(17.91514756944443 39.66493055555556)"/><use xlink:href="#f" transform="matrix(1,0,0,1,632,485) translate(79.98068576388887 39.66493055555556)"/><use xlink:href="#g" transform="matrix(1,0,0,1,632,485) translate(107.08007812499999 39.66493055555556)"/><use xlink:href="#e" transform="matrix(1,0,0,1,632,485) translate(231.38736979166666 39.66493055555556)"/><path d="M1040 479a6 6 0 0 1 6-6h328a6 6 0 0 1 6 6v75a6 6 0 0 1-6 6h-328a6 6 0 0 1-6-6z" stroke="#b5d6ff" stroke-width="2" fill="#cfe4ff"/><use xlink:href="#b" transform="matrix(1,0,0,1,1052,485) translate(53.34071180555554 39.66493055555556)"/><use xlink:href="#h" transform="matrix(1,0,0,1,1052,485) translate(115.40624999999999 39.66493055555556)"/><use xlink:href="#i" transform="matrix(1,0,0,1,1052,485) translate(142.5056423611111 39.66493055555556)"/><use xlink:href="#e" transform="matrix(1,0,0,1,1052,485) translate(195.96180555555554 39.66493055555556)"/><path d="M620 146a6 6 0 0 1 6-6h328a6 6 0 0 1 6 6v75a6 6 0 0 1-6 6H626a6 6 0 0 1-6-6z" stroke="#febed9" stroke-width="2" fill="#fff0fb"/><use xlink:href="#j" transform="matrix(1,0,0,1,632,152) translate(110.6484375 39.66493055555556)"/><use xlink:href="#k" transform="matrix(1,0,0,1,632,152) translate(181.62543402777777 39.66493055555556)"/><path d="M790 403v46.26" stroke="#dfe3e8" stroke-width="4" fill="none"/><path d="M791.98 403.05H788V401H792z" stroke="#dfe3e8" stroke-width=".05" fill="#dfe3e8"/><path d="M790 465.53l-4.63-14.27h9.26z" stroke="#dfe3e8" stroke-width="4" fill="#dfe3e8"/><path d="M617 356.5H376a6 6 0 0 0-6 6v86.76" stroke="#dfe3e8" stroke-width="4" fill="none"/><path d="M619 358.48h-2.05v-3.96H619z" stroke="#dfe3e8" stroke-width=".05" fill="#dfe3e8"/><path d="M370 465.53l-4.63-14.27h9.26z" stroke="#dfe3e8" stroke-width="4" fill="#dfe3e8"/><path d="M963 356.5h241a6 6 0 0 1 6 6v86.76" stroke="#dfe3e8" stroke-width="4" fill="none"/><path d="M963.05 358.48H961v-3.96h2.05z" stroke="#dfe3e8" stroke-width=".05" fill="#dfe3e8"/><path d="M1210 465.53l-4.63-14.27h9.27z" stroke="#dfe3e8" stroke-width="4" fill="#dfe3e8"/><path d="M790 230v59.26" stroke="#dfe3e8" stroke-width="4" fill="none"/><path d="M791.98 230.05H788V228H792z" stroke="#dfe3e8" stroke-width=".05" fill="#dfe3e8"/><path d="M790 305.53l-4.63-14.27h9.26z" stroke="#dfe3e8" stroke-width="4" fill="#dfe3e8"/><defs><path fill="#282c33" d="M651-255l416-1201h210L737 0H567L28-1456h209" id="l"/><path fill="#282c33" d="M341 0H156v-1082h185V0zm-91-1264c-68 0-108-42-109-105 0-62 41-107 109-107s110 44 110 107-42 105-110 105" id="m"/><path fill="#282c33" d="M599-131c141 0 220-65 285-146l113 88C906-50 770 20 589 20 281 21 93-214 93-545c0-223 93-397 233-485 74-48 154-72 240-72 300 2 449 218 445 537v77H278c0 197 129 357 321 357zm227-509c-3-180-88-310-260-310-170 0-264 140-282 310h542" id="n"/><path fill="#282c33" d="M1098-255l208-827h185L1176 0h-150L763-820 507 0H357L43-1082h184l213 810 252-810h149" id="o"/><path fill="#282c33" d="M417-1456L893-268l476-1188h249V0h-192c-4-403 4-794 18-1179L966 0H819L342-1176c15 384 23 773 19 1176H169v-1456h248" id="p"/><path fill="#282c33" d="M584 20C278 26 81-227 91-551c10-320 175-545 491-551 308-5 503 247 494 573-9 322-175 543-492 549zm-2-970c-208 0-305 185-305 421 0 216 106 398 307 398 211 0 307-186 307-420 0-214-109-399-309-399" id="q"/><path fill="#282c33" d="M520 20C244 20 95-247 95-550c0-298 151-550 427-552 127 0 227 43 301 130v-564h185V0H838l-9-116C755-25 652 20 520 20zm48-965c-210 0-288 177-288 416 0 218 87 392 286 392 117 0 203-53 257-158v-497c-55-102-140-153-255-153" id="r"/><path fill="#282c33" d="M341 0H156v-1536h185V0" id="s"/><g id="a"><use transform="matrix(0.012586805555555556,0,0,0.012586805555555556,0,0)" xlink:href="#l"/><use transform="matrix(0.012586805555555556,0,0,0.012586805555555556,16.40060763888889,0)" xlink:href="#m"/><use transform="matrix(0.012586805555555556,0,0,0.012586805555555556,22.65625,0)" xlink:href="#n"/><use transform="matrix(0.012586805555555556,0,0,0.012586805555555556,36.31293402777778,0)" xlink:href="#o"/><use transform="matrix(0.012586805555555556,0,0,0.012586805555555556,55.68402777777778,0)" xlink:href="#p"/><use transform="matrix(0.012586805555555556,0,0,0.012586805555555556,78.18923611111111,0)" xlink:href="#q"/><use transform="matrix(0.012586805555555556,0,0,0.012586805555555556,92.890625,0)" xlink:href="#r"/><use transform="matrix(0.012586805555555556,0,0,0.012586805555555556,107.42838541666667,0)" xlink:href="#n"/><use transform="matrix(0.012586805555555556,0,0,0.012586805555555556,121.08506944444444,0)" xlink:href="#s"/></g><g id="b"><use transform="matrix(0.012586805555555556,0,0,0.012586805555555556,0,0)" xlink:href="#l"/><use transform="matrix(0.012586805555555556,0,0,0.012586805555555556,16.40060763888889,0)" xlink:href="#m"/><use transform="matrix(0.012586805555555556,0,0,0.012586805555555556,22.65625,0)" xlink:href="#n"/><use transform="matrix(0.012586805555555556,0,0,0.012586805555555556,36.31293402777778,0)" xlink:href="#o"/></g><path fill="#282c33" d="M729 0H543v-1233l-373 137v-168l530-199h29V0" id="t"/><path fill="#282c33" d="M248 11c-71 0-114-43-114-108 0-67 42-112 114-112s116 45 116 112c-1 65-45 108-116 108zm1-883c-71 0-114-43-114-108 0-67 42-112 114-112s116 45 116 112c-1 65-45 108-116 108" id="u"/><g id="c"><use transform="matrix(0.012586805555555556,0,0,0.012586805555555556,0,0)" xlink:href="#t"/><use transform="matrix(0.012586805555555556,0,0,0.012586805555555556,14.47482638888889,0)" xlink:href="#u"/></g><path fill="#282c33" d="M631-137c179 0 314-70 314-231 0-71-25-127-75-166s-141-77-272-115c-165-47-285-106-360-175s-112-154-112-255c0-245 231-397 495-397 206 0 369 89 449 218 43 68 65 142 65 223H942c0-184-129-283-321-283-172 0-299 76-301 236 0 59 26 109 76 150s135 78 256 113c205 59 345 116 436 256 35 53 50 119 50 193-2 256-231 398-507 390C333 12 90-129 80-422h193c0 187 160 285 358 285" id="v"/><path fill="#282c33" d="M277-555c0 244 77 420 297 424 127 2 249-93 255-210h175C980-127 805 20 574 20 258 20 81-222 92-562c11-319 164-533 481-540 237-5 426 165 431 392H829c-7-133-115-242-256-240-209 4-296 166-296 395" id="w"/><path fill="#282c33" d="M589-945c-131 0-219 81-264 174V0H140v-1082h175l6 136c83-104 191-156 324-156 229 0 346 129 346 387V0H806v-716c-2-153-65-229-217-229" id="x"/><path fill="#282c33" d="M663-916c-163-27-288 18-338 148V0H140v-1082h180l3 125c61-97 147-145 258-145 36 0 63 5 82 14v172" id="y"/><path fill="#282c33" d="M494-271l252-811h198L509 167C425 381 299 474 84 421V271c167 16 242-37 283-173l41-110L22-1082h202" id="z"/><g id="d"><use transform="matrix(0.012586805555555556,0,0,0.012586805555555556,0,0)" xlink:href="#v"/><use transform="matrix(0.012586805555555556,0,0,0.012586805555555556,15.29296875,0)" xlink:href="#w"/><use transform="matrix(0.012586805555555556,0,0,0.012586805555555556,28.786024305555557,0)" xlink:href="#n"/><use transform="matrix(0.012586805555555556,0,0,0.012586805555555556,42.442708333333336,0)" xlink:href="#x"/><use transform="matrix(0.012586805555555556,0,0,0.012586805555555556,56.665798611111114,0)" xlink:href="#n"/><use transform="matrix(0.012586805555555556,0,0,0.012586805555555556,70.32248263888889,0)" xlink:href="#y"/><use transform="matrix(0.012586805555555556,0,0,0.012586805555555556,79.27170138888889,0)" xlink:href="#z"/></g><path fill="#282c33" d="M483-459l28 192 41-173 288-1016h162l281 1016 40 176 31-196 226-996h193L1420 0h-175L945-1061l-23-111-23 111L588 0H413L61-1456h192" id="A"/><g id="e"><use transform="matrix(0.012586805555555556,0,0,0.012586805555555556,0,0)" xlink:href="#A"/><use transform="matrix(0.012586805555555556,0,0,0.012586805555555556,22.480034722222225,0)" xlink:href="#q"/><use transform="matrix(0.012586805555555556,0,0,0.012586805555555556,37.181423611111114,0)" xlink:href="#y"/><use transform="matrix(0.012586805555555556,0,0,0.012586805555555556,45.904079861111114,0)" xlink:href="#s"/><use transform="matrix(0.012586805555555556,0,0,0.012586805555555556,52.15972222222222,0)" xlink:href="#r"/></g><path fill="#282c33" d="M569-1476c255 0 440 146 439 390 0 143-91 314-274 512L344-151h731V0H121v-133l504-560c75-85 125-155 155-207 105-184 6-424-211-424-183 0-293 113-291 297H93c-3-270 199-449 476-449" id="B"/><g id="f"><use transform="matrix(0.012586805555555556,0,0,0.012586805555555556,0,0)" xlink:href="#B"/><use transform="matrix(0.012586805555555556,0,0,0.012586805555555556,14.47482638888889,0)" xlink:href="#u"/></g><path fill="#282c33" d="M1216-1011c-1 297-202 441-512 441H361V0H169v-1456h537c297-6 510 164 510 445zm-192 2c1-178-126-288-307-289H361v571h345c196 1 318-92 318-282" id="C"/><path fill="#282c33" d="M561-1102c238-4 403 126 403 351v498c0 99 13 178 38 237V0H808c-11-21-19-59-26-114C696-25 593 20 474 20c-199 0-368-130-365-320 4-251 214-359 490-356h180v-85c-1-135-86-212-229-212-115 0-232 67-233 171H131c20-205 206-316 430-320zM294-326c0 117 90 185 207 185 122 0 239-75 278-162v-222H634c-227 0-340 66-340 199" id="D"/><path fill="#282c33" d="M1240-945c-141 0-250 95-250 227V0H804v-709c0-157-77-236-231-236-121 0-204 52-249 155V0H139v-1082h175l5 120c79-93 186-140 321-140 151 0 254 58 309 174 69-98 181-174 345-174 237 0 362 126 362 377V0h-185v-714c-2-159-67-231-231-231" id="E"/><g id="g"><use transform="matrix(0.012586805555555556,0,0,0.012586805555555556,0,0)" xlink:href="#C"/><use transform="matrix(0.012586805555555556,0,0,0.012586805555555556,16.123697916666668,0)" xlink:href="#D"/><use transform="matrix(0.012586805555555556,0,0,0.012586805555555556,30.145399305555557,0)" xlink:href="#x"/><use transform="matrix(0.012586805555555556,0,0,0.012586805555555556,44.368489583333336,0)" xlink:href="#q"/><use transform="matrix(0.012586805555555556,0,0,0.012586805555555556,59.06987847222222,0)" xlink:href="#y"/><use transform="matrix(0.012586805555555556,0,0,0.012586805555555556,67.2890625,0)" xlink:href="#D"/><use transform="matrix(0.012586805555555556,0,0,0.012586805555555556,81.31076388888889,0)" xlink:href="#E"/><use transform="matrix(0.012586805555555556,0,0,0.012586805555555556,103.90407986111111,0)" xlink:href="#D"/></g><path fill="#282c33" d="M832-402c-1-179-119-264-303-265H390v-151h139c164 0 281-91 281-250 0-171-85-256-255-256-154 0-265 99-263 250H107c-4-235 205-402 448-402 266 0 444 150 440 412-2 148-109 272-229 317 147 45 249 158 251 341 3 262-197 426-461 426C299 20 91-135 94-384h186c-2 156 116 253 276 253 176 0 277-96 276-271" id="F"/><g id="h"><use transform="matrix(0.012586805555555556,0,0,0.012586805555555556,0,0)" xlink:href="#F"/><use transform="matrix(0.012586805555555556,0,0,0.012586805555555556,14.47482638888889,0)" xlink:href="#u"/></g><path fill="#282c33" d="M730-137c145 0 253-29 323-105v-327H716v-156h528v534C1148-51 964 20 729 20c-394 0-598-279-607-678v-127c-5-410 194-690 585-691 310-1 499 171 537 447h-192c-36-193-151-289-344-289-285 0-393 220-393 528v119c-5 296 140 534 415 534" id="G"/><g id="i"><use transform="matrix(0.012586805555555556,0,0,0.012586805555555556,0,0)" xlink:href="#G"/><use transform="matrix(0.012586805555555556,0,0,0.012586805555555556,17.55859375,0)" xlink:href="#y"/><use transform="matrix(0.012586805555555556,0,0,0.012586805555555556,26.28125,0)" xlink:href="#m"/><use transform="matrix(0.012586805555555556,0,0,0.012586805555555556,32.536892361111114,0)" xlink:href="#r"/></g><path fill="#282c33" d="M491 20c-241-1-355-148-355-398v-704h185v699c0 164 67 246 200 246 141 0 235-53 282-158v-787h185V0H812l-4-107C736-22 630 20 491 20" id="H"/><g id="j"><use transform="matrix(0.012586805555555556,0,0,0.012586805555555556,0,0)" xlink:href="#p"/><use transform="matrix(0.012586805555555556,0,0,0.012586805555555556,22.505208333333336,0)" xlink:href="#n"/><use transform="matrix(0.012586805555555556,0,0,0.012586805555555556,36.161892361111114,0)" xlink:href="#x"/><use transform="matrix(0.012586805555555556,0,0,0.012586805555555556,50.38498263888889,0)" xlink:href="#H"/></g><path fill="#282c33" d="M665-137c214 0 337-121 336-332v-987h193v990c-3 300-218 486-529 486-309 0-526-181-525-484v-992h190v986c-1 210 123 333 335 333" id="I"/><path fill="#282c33" d="M375 0H183v-1456h192V0" id="J"/><g id="k"><use transform="matrix(0.012586805555555556,0,0,0.012586805555555556,0,0)" xlink:href="#I"/><use transform="matrix(0.012586805555555556,0,0,0.012586805555555556,16.71527777777778,0)" xlink:href="#J"/></g></defs></g></svg>