<svg xmlns="http://www.w3.org/2000/svg" viewBox="0 0 48 48"><path d="M35.112 16.101h-4.094l-3.403-3.992a4.741 4.741 0 0 0-1.31-1.28c.226.042.457.07.695.07 2.15 0 3.9-1.749 3.9-3.899S29.15 3.1 27 3.1 23.1 4.85 23.1 7c0 1.364.707 2.563 1.77 3.26a3.602 3.602 0 0 0-.64-.067c-2.225 0-3.448 3.725-3.5 3.888l-5.052 16.373-6.244 8.268c-.296.382-.69.977-.69 1.723 0 1.027.609 1.929 1.533 2.291.334.15.631.211.899.211.746 0 1.258-.482 1.691-.89l.292-.278 5.92-7.433 2.9-5.758 3.12 3.233v8.518c0 1.176.77 2.215 1.828 2.47.72.173 1.457.012 2.03-.438a2.48 2.48 0 0 0 .943-1.965c0-6.242 0-8.465-.112-9.258h.086v-.007c-.005-1.064-.895-1.846-.902-1.846l-4.478-5.263 2.003-5.837 2.495 2.705 4.108-.01V42.9h2.8V20.269c.765-.377 1.271-1.21 1.206-2.044-.046-1.15-.935-2.091-1.994-2.124zM23.9 7c0-1.71 1.391-3.1 3.1-3.1s3.1 1.39 3.1 3.1-1.391 3.1-3.1 3.1-3.1-1.39-3.1-3.1zm11.2 35.1h-1.2V20.813l1.2-.297V42.1zm.289-22.48l-1.889.48h-4.158l-3.167-3.433-2.585 7.536 4.817 5.655c.006.006.666.59.666 1.29h.005c.006.117.022 1.152.022 9.258 0 .53-.233 1.017-.638 1.336a1.552 1.552 0 0 1-1.348.29c-.703-.17-1.214-.882-1.214-1.693v-8.841l-4.129-4.277-3.362 6.696-5.829 7.315-.262.242c-.63.595-.967.866-1.731.525a1.65 1.65 0 0 1-1.043-1.554c0-.386.161-.767.525-1.237l6.29-8.328 5.134-16.558c.297-.926 1.368-3.329 2.736-3.329 1.706 0 2.7 1.528 2.743 1.589l3.676 4.318h4.407c.739 0 1.225.705 1.254 1.372.044.574-.36 1.164-.92 1.349zm-24.496 2.13l3.416 1.104a1.788 1.788 0 0 0 1.352-.11c.414-.213.735-.59.877-1.033l3.355-10.395c.145-.45.106-.93-.11-1.351a1.76 1.76 0 0 0-1.033-.878l-3.412-1.104a1.768 1.768 0 0 0-2.23 1.142L9.75 19.522a1.775 1.775 0 0 0 1.143 2.228zm-.381-1.983L13.87 9.37a.97.97 0 0 1 1.222-.626l3.413 1.103c.246.08.447.25.565.482.12.23.14.494.06.74l-3.354 10.396a.979.979 0 0 1-.481.567.976.976 0 0 1-.741.06l-3.415-1.104h-.001a.963.963 0 0 1-.565-.483.972.972 0 0 1-.061-.74z"/></svg>